<svg id="visual" viewBox="0 0 1600 4000" width="1600" height="4000" xmlns="http://www.w3.org/2000/svg" xmlns:xlink="http://www.w3.org/1999/xlink" version="1.1"><rect x="0" y="0" width="1600" height="4000" fill="#11071F"></rect><defs><linearGradient id="grad1_0" x1="0%" y1="0%" x2="100%" y2="100%"><stop offset="30%" stop-color="#7127ba" stop-opacity="1"></stop><stop offset="70%" stop-color="#7127ba" stop-opacity="1"></stop></linearGradient></defs><defs><linearGradient id="grad1_1" x1="0%" y1="0%" x2="100%" y2="100%"><stop offset="30%" stop-color="#7127ba" stop-opacity="1"></stop><stop offset="70%" stop-color="#5e26a3" stop-opacity="1"></stop></linearGradient></defs><defs><linearGradient id="grad1_2" x1="0%" y1="0%" x2="100%" y2="100%"><stop offset="30%" stop-color="#4d248c" stop-opacity="1"></stop><stop offset="70%" stop-color="#5e26a3" stop-opacity="1"></stop></linearGradient></defs><defs><linearGradient id="grad1_3" x1="0%" y1="0%" x2="100%" y2="100%"><stop offset="30%" stop-color="#4d248c" stop-opacity="1"></stop><stop offset="70%" stop-color="#3e2075" stop-opacity="1"></stop></linearGradient></defs><defs><linearGradient id="grad1_4" x1="0%" y1="0%" x2="100%" y2="100%"><stop offset="30%" stop-color="#301c5f" stop-opacity="1"></stop><stop offset="70%" stop-color="#3e2075" stop-opacity="1"></stop></linearGradient></defs><defs><linearGradient id="grad1_5" x1="0%" y1="0%" x2="100%" y2="100%"><stop offset="30%" stop-color="#301c5f" stop-opacity="1"></stop><stop offset="70%" stop-color="#241749" stop-opacity="1"></stop></linearGradient></defs><defs><linearGradient id="grad1_6" x1="0%" y1="0%" x2="100%" y2="100%"><stop offset="30%" stop-color="#191233" stop-opacity="1"></stop><stop offset="70%" stop-color="#241749" stop-opacity="1"></stop></linearGradient></defs><defs><linearGradient id="grad1_7" x1="0%" y1="0%" x2="100%" y2="100%"><stop offset="30%" stop-color="#191233" stop-opacity="1"></stop><stop offset="70%" stop-color="#11071f" stop-opacity="1"></stop></linearGradient></defs><defs><linearGradient id="grad2_0" x1="0%" y1="0%" x2="100%" y2="100%"><stop offset="30%" stop-color="#7127ba" stop-opacity="1"></stop><stop offset="70%" stop-color="#7127ba" stop-opacity="1"></stop></linearGradient></defs><defs><linearGradient id="grad2_1" x1="0%" y1="0%" x2="100%" y2="100%"><stop offset="30%" stop-color="#5e26a3" stop-opacity="1"></stop><stop offset="70%" stop-color="#7127ba" stop-opacity="1"></stop></linearGradient></defs><defs><linearGradient id="grad2_2" x1="0%" y1="0%" x2="100%" y2="100%"><stop offset="30%" stop-color="#5e26a3" stop-opacity="1"></stop><stop offset="70%" stop-color="#4d248c" stop-opacity="1"></stop></linearGradient></defs><defs><linearGradient id="grad2_3" x1="0%" y1="0%" x2="100%" y2="100%"><stop offset="30%" stop-color="#3e2075" stop-opacity="1"></stop><stop offset="70%" stop-color="#4d248c" stop-opacity="1"></stop></linearGradient></defs><defs><linearGradient id="grad2_4" x1="0%" y1="0%" x2="100%" y2="100%"><stop offset="30%" stop-color="#3e2075" stop-opacity="1"></stop><stop offset="70%" stop-color="#301c5f" stop-opacity="1"></stop></linearGradient></defs><defs><linearGradient id="grad2_5" x1="0%" y1="0%" x2="100%" y2="100%"><stop offset="30%" stop-color="#241749" stop-opacity="1"></stop><stop offset="70%" stop-color="#301c5f" stop-opacity="1"></stop></linearGradient></defs><defs><linearGradient id="grad2_6" x1="0%" y1="0%" x2="100%" y2="100%"><stop offset="30%" stop-color="#241749" stop-opacity="1"></stop><stop offset="70%" stop-color="#191233" stop-opacity="1"></stop></linearGradient></defs><defs><linearGradient id="grad2_7" x1="0%" y1="0%" x2="100%" y2="100%"><stop offset="30%" stop-color="#11071f" stop-opacity="1"></stop><stop offset="70%" stop-color="#191233" stop-opacity="1"></stop></linearGradient></defs><g transform="translate(1600, 0)"><path d="M0 949C-33.5 898 -67 847 -99.9 823C-132.9 798.9 -165.4 801.9 -197 799.1C-228.5 796.3 -259.2 787.9 -301.8 795.7C-344.3 803.5 -398.7 827.7 -419.2 798.7C-439.7 769.7 -426.4 687.4 -468.1 678.1C-509.8 668.8 -606.5 732.4 -636.6 718.6C-666.7 704.7 -630.2 613.5 -649.7 575.6C-669.3 537.7 -744.9 553.3 -764.6 527.7C-784.2 502.2 -747.9 435.5 -758 397.8C-768 360.1 -824.6 351.3 -865.8 328.4C-907.1 305.4 -933 268.2 -923.4 227.6C-913.7 186.9 -868.4 142.8 -858.7 104.3C-849 65.7 -875 32.9 -901 0L0 0Z" fill="#150d29"></path><path d="M0 830.4C-29.3 785.7 -58.6 741.1 -87.4 720.1C-116.3 699.1 -144.7 701.6 -172.3 699.2C-200 696.8 -226.8 689.4 -264 696.2C-301.3 703.1 -348.8 724.2 -366.8 698.8C-384.7 673.5 -373.1 601.5 -409.6 593.4C-446.1 585.2 -530.7 640.9 -557 628.7C-583.4 616.6 -551.4 536.8 -568.5 503.6C-585.6 470.5 -651.8 484.1 -669 461.8C-686.2 439.4 -654.4 381.1 -663.2 348.1C-672 315.1 -721.5 307.4 -757.6 287.3C-793.7 267.2 -816.4 234.7 -807.9 199.1C-799.5 163.6 -759.8 124.9 -751.4 91.2C-742.9 57.5 -765.6 28.8 -788.4 0L0 0Z" fill="#1f143e"></path><path d="M0 711.8C-25.1 673.5 -50.2 635.2 -74.9 617.2C-99.7 599.2 -124 601.4 -147.7 599.3C-171.4 597.2 -194.4 590.9 -226.3 596.8C-258.2 602.7 -299 620.8 -314.4 599C-329.8 577.2 -319.8 515.6 -351.1 508.6C-382.3 501.6 -454.9 549.3 -477.4 538.9C-500 528.5 -472.6 460.1 -487.3 431.7C-501.9 403.3 -558.7 415 -573.4 395.8C-588.2 376.6 -560.9 326.6 -568.5 298.4C-576 270.1 -618.4 263.5 -649.4 246.3C-680.3 229.1 -699.8 201.2 -692.5 170.7C-685.3 140.2 -651.3 107.1 -644 78.2C-636.8 49.3 -656.3 24.7 -675.7 0L0 0Z" fill="#2a1a54"></path><path d="M0 593.1C-20.9 561.2 -41.8 529.4 -62.5 514.3C-83.1 499.3 -103.4 501.2 -123.1 499.4C-142.8 497.7 -162 492.4 -188.6 497.3C-215.2 502.2 -249.2 517.3 -262 499.2C-274.8 481 -266.5 429.7 -292.6 423.8C-318.6 418 -379.1 457.8 -397.9 449.1C-416.7 440.5 -393.8 383.4 -406.1 359.7C-418.3 336.1 -465.6 345.8 -477.8 329.8C-490.1 313.9 -467.4 272.2 -473.7 248.6C-480 225.1 -515.4 219.6 -541.1 205.2C-566.9 190.9 -583.2 167.7 -577.1 142.2C-571.1 116.8 -542.7 89.2 -536.7 65.2C-530.6 41.1 -546.9 20.5 -563.1 0L0 0Z" fill="#371e6a"></path><path d="M0 474.5C-16.7 449 -33.5 423.5 -50 411.5C-66.4 399.5 -82.7 400.9 -98.5 399.5C-114.3 398.2 -129.6 393.9 -150.9 397.8C-172.1 401.8 -199.3 413.9 -209.6 399.3C-219.9 384.8 -213.2 343.7 -234 339.1C-254.9 334.4 -303.3 366.2 -318.3 359.3C-333.3 352.4 -315.1 306.7 -324.9 287.8C-334.6 268.9 -372.5 276.6 -382.3 263.9C-392.1 251.1 -373.9 217.8 -379 198.9C-384 180 -412.3 175.7 -432.9 164.2C-453.5 152.7 -466.5 134.1 -461.7 113.8C-456.8 93.5 -434.2 71.4 -429.3 52.1C-424.5 32.9 -437.5 16.4 -450.5 0L0 0Z" fill="#452281"></path><path d="M0 355.9C-12.6 336.7 -25.1 317.6 -37.5 308.6C-49.8 299.6 -62 300.7 -73.9 299.7C-85.7 298.6 -97.2 295.4 -113.2 298.4C-129.1 301.3 -149.5 310.4 -157.2 299.5C-164.9 288.6 -159.9 257.8 -175.5 254.3C-191.2 250.8 -227.4 274.7 -238.7 269.5C-250 264.3 -236.3 230 -243.6 215.8C-251 201.6 -279.3 207.5 -286.7 197.9C-294.1 188.3 -280.4 163.3 -284.2 149.2C-288 135 -309.2 131.7 -324.7 123.1C-340.2 114.5 -349.9 100.6 -346.3 85.3C-342.6 70.1 -325.6 53.5 -322 39.1C-318.4 24.7 -328.1 12.3 -337.9 0L0 0Z" fill="#562598"></path><path d="M0 237.3C-8.4 224.5 -16.7 211.7 -25 205.7C-33.2 199.7 -41.3 200.5 -49.2 199.8C-57.1 199.1 -64.8 197 -75.4 198.9C-86.1 200.9 -99.7 206.9 -104.8 199.7C-109.9 192.4 -106.6 171.9 -117 169.5C-127.4 167.2 -151.6 183.1 -159.1 179.6C-166.7 176.2 -157.5 153.4 -162.4 143.9C-167.3 134.4 -186.2 138.3 -191.1 131.9C-196.1 125.5 -187 108.9 -189.5 99.5C-192 90 -206.1 87.8 -216.5 82.1C-226.8 76.4 -233.3 67.1 -230.8 56.9C-228.4 46.7 -217.1 35.7 -214.7 26.1C-212.3 16.4 -218.8 8.2 -225.2 0L0 0Z" fill="#6827af"></path><path d="M0 118.6C-4.2 112.2 -8.4 105.9 -12.5 102.9C-16.6 99.9 -20.7 100.2 -24.6 99.9C-28.6 99.5 -32.4 98.5 -37.7 99.5C-43 100.4 -49.8 103.5 -52.4 99.8C-55 96.2 -53.3 85.9 -58.5 84.8C-63.7 83.6 -75.8 91.6 -79.6 89.8C-83.3 88.1 -78.8 76.7 -81.2 71.9C-83.7 67.2 -93.1 69.2 -95.6 66C-98 62.8 -93.5 54.4 -94.7 49.7C-96 45 -103.1 43.9 -108.2 41C-113.4 38.2 -116.6 33.5 -115.4 28.4C-114.2 23.4 -108.5 17.8 -107.3 13C-106.1 8.2 -109.4 4.1 -112.6 0L0 0Z" fill="#7127ba"></path></g><g transform="translate(0, 4000)"><path d="M0 -960C33.9 -911.5 67.7 -863 103.5 -852.7C139.4 -842.5 177.2 -870.4 218.5 -886.5C259.8 -902.5 304.6 -906.7 333.3 -878.9C362.1 -851.1 374.8 -791.4 396.9 -756.2C418.9 -720.9 450.4 -710.2 477.7 -692.1C505.1 -674.1 528.5 -648.7 555.7 -627.3C582.9 -605.8 613.9 -588.3 636.2 -563.7C658.6 -539 672.3 -507.3 702.8 -485.1C733.4 -463 780.9 -450.5 805.8 -422.9C830.7 -395.3 833 -352.8 820 -311C807 -269.2 778.8 -228.3 795.2 -196C811.7 -163.7 872.8 -140.1 896.4 -108.8C920 -77.6 906 -38.8 892 0L0 0Z" fill="#150d29"></path><path d="M0 -840C29.6 -797.6 59.2 -755.1 90.6 -746.1C122 -737.2 155 -761.6 191.2 -775.7C227.3 -789.7 266.5 -793.4 291.7 -769.1C316.8 -744.7 328 -692.5 347.3 -661.7C366.6 -630.8 394.1 -621.4 418 -605.6C442 -589.8 462.4 -567.6 486.2 -548.8C510 -530.1 537.2 -514.8 556.7 -493.2C576.3 -471.6 588.2 -443.9 615 -424.5C641.7 -405.1 683.3 -394.1 705 -370C726.8 -345.9 728.9 -308.7 717.5 -272.1C706.2 -235.6 681.4 -199.8 695.8 -171.5C710.2 -143.2 763.7 -122.6 784.4 -95.2C805 -67.9 792.8 -34 780.5 0L0 0Z" fill="#1f143e"></path><path d="M0 -720C25.4 -683.6 50.8 -647.3 77.7 -639.6C104.5 -631.8 132.9 -652.8 163.9 -664.9C194.8 -676.9 228.4 -680 250 -659.2C271.6 -638.4 281.1 -593.6 297.7 -567.1C314.2 -540.7 337.8 -532.6 358.3 -519.1C378.9 -505.6 396.4 -486.5 416.8 -470.4C437.2 -454.4 460.4 -441.2 477.2 -422.7C493.9 -404.3 504.2 -380.5 527.1 -363.8C550.1 -347.2 585.7 -337.8 604.3 -317.2C623 -296.5 624.7 -264.6 615 -233.2C605.3 -201.9 584.1 -171.2 596.4 -147C608.7 -122.8 654.6 -105.1 672.3 -81.6C690 -58.2 679.5 -29.1 669 0L0 0Z" fill="#2a1a54"></path><path d="M0 -600C21.2 -569.7 42.3 -539.4 64.7 -533C87.1 -526.5 110.7 -544 136.6 -554C162.4 -564.1 190.4 -566.7 208.3 -549.3C226.3 -532 234.3 -494.6 248 -472.6C261.8 -450.6 281.5 -443.9 298.6 -432.6C315.7 -421.3 330.3 -405.4 347.3 -392C364.3 -378.6 383.7 -367.7 397.6 -352.3C411.6 -336.9 420.2 -317 439.3 -303.2C458.4 -289.4 488 -281.5 503.6 -264.3C519.2 -247.1 520.6 -220.5 512.5 -194.4C504.4 -168.3 486.7 -142.7 497 -122.5C507.3 -102.3 545.5 -87.5 560.3 -68C575 -48.5 566.3 -24.3 557.5 0L0 0Z" fill="#371e6a"></path><path d="M0 -480C16.9 -455.8 33.9 -431.5 51.8 -426.4C69.7 -421.2 88.6 -435.2 109.2 -443.2C129.9 -451.3 152.3 -453.3 166.7 -439.5C181 -425.6 187.4 -395.7 198.4 -378.1C209.5 -360.5 225.2 -355.1 238.9 -346.1C252.6 -337 264.3 -324.3 277.8 -313.6C291.4 -302.9 306.9 -294.1 318.1 -281.8C329.3 -269.5 336.1 -253.6 351.4 -242.6C366.7 -231.5 390.4 -225.2 402.9 -211.4C415.3 -197.7 416.5 -176.4 410 -155.5C403.5 -134.6 389.4 -114.1 397.6 -98C405.8 -81.9 436.4 -70 448.2 -54.4C460 -38.8 453 -19.4 446 0L0 0Z" fill="#452281"></path><path d="M0 -360C12.7 -341.8 25.4 -323.6 38.8 -319.8C52.3 -315.9 66.4 -326.4 81.9 -332.4C97.4 -338.4 114.2 -340 125 -329.6C135.8 -319.2 140.6 -296.8 148.8 -283.6C157.1 -270.4 168.9 -266.3 179.2 -259.5C189.4 -252.8 198.2 -243.3 208.4 -235.2C218.6 -227.2 230.2 -220.6 238.6 -211.4C247 -202.1 252.1 -190.2 263.6 -181.9C275 -173.6 292.8 -168.9 302.2 -158.6C311.5 -148.3 312.4 -132.3 307.5 -116.6C302.6 -101 292 -85.6 298.2 -73.5C304.4 -61.4 327.3 -52.5 336.2 -40.8C345 -29.1 339.8 -14.6 334.5 0L0 0Z" fill="#562598"></path><path d="M0 -240C8.5 -227.9 16.9 -215.8 25.9 -213.2C34.8 -210.6 44.3 -217.6 54.6 -221.6C64.9 -225.6 76.1 -226.7 83.3 -219.7C90.5 -212.8 93.7 -197.9 99.2 -189C104.7 -180.2 112.6 -177.5 119.4 -173C126.3 -168.5 132.1 -162.2 138.9 -156.8C145.7 -151.5 153.5 -147.1 159.1 -140.9C164.6 -134.8 168.1 -126.8 175.7 -121.3C183.4 -115.7 195.2 -112.6 201.4 -105.7C207.7 -98.8 208.2 -88.2 205 -77.7C201.8 -67.3 194.7 -57.1 198.8 -49C202.9 -40.9 218.2 -35 224.1 -27.2C230 -19.4 226.5 -9.7 223 0L0 0Z" fill="#6827af"></path><path d="M0 -120C4.2 -113.9 8.5 -107.9 12.9 -106.6C17.4 -105.3 22.1 -108.8 27.3 -110.8C32.5 -112.8 38.1 -113.3 41.7 -109.9C45.3 -106.4 46.9 -98.9 49.6 -94.5C52.4 -90.1 56.3 -88.8 59.7 -86.5C63.1 -84.3 66.1 -81.1 69.5 -78.4C72.9 -75.7 76.7 -73.5 79.5 -70.5C82.3 -67.4 84 -63.4 87.9 -60.6C91.7 -57.9 97.6 -56.3 100.7 -52.9C103.8 -49.4 104.1 -44.1 102.5 -38.9C100.9 -33.7 97.3 -28.5 99.4 -24.5C101.5 -20.5 109.1 -17.5 112.1 -13.6C115 -9.7 113.3 -4.9 111.5 0L0 0Z" fill="#7127ba"></path></g></svg>