<svg id="visual" viewBox="0 0 1600 4000" width="1600" height="4000" xmlns="http://www.w3.org/2000/svg" xmlns:xlink="http://www.w3.org/1999/xlink" version="1.1"><rect x="0" y="0" width="1600" height="4000" fill="#161513"></rect><defs><linearGradient id="grad1_0" x1="0%" y1="0%" x2="100%" y2="100%"><stop offset="30%" stop-color="#8491a0" stop-opacity="1"></stop><stop offset="70%" stop-color="#8491a0" stop-opacity="1"></stop></linearGradient></defs><defs><linearGradient id="grad1_1" x1="0%" y1="0%" x2="100%" y2="100%"><stop offset="30%" stop-color="#8491a0" stop-opacity="1"></stop><stop offset="70%" stop-color="#45514d" stop-opacity="1"></stop></linearGradient></defs><defs><linearGradient id="grad1_2" x1="0%" y1="0%" x2="100%" y2="100%"><stop offset="30%" stop-color="#161513" stop-opacity="1"></stop><stop offset="70%" stop-color="#45514d" stop-opacity="1"></stop></linearGradient></defs><defs><linearGradient id="grad2_0" x1="0%" y1="0%" x2="100%" y2="100%"><stop offset="30%" stop-color="#8491a0" stop-opacity="1"></stop><stop offset="70%" stop-color="#8491a0" stop-opacity="1"></stop></linearGradient></defs><defs><linearGradient id="grad2_1" x1="0%" y1="0%" x2="100%" y2="100%"><stop offset="30%" stop-color="#45514d" stop-opacity="1"></stop><stop offset="70%" stop-color="#8491a0" stop-opacity="1"></stop></linearGradient></defs><defs><linearGradient id="grad2_2" x1="0%" y1="0%" x2="100%" y2="100%"><stop offset="30%" stop-color="#45514d" stop-opacity="1"></stop><stop offset="70%" stop-color="#161513" stop-opacity="1"></stop></linearGradient></defs><g transform="translate(1600, 0)"><path d="M0 640C-22.4 599.9 -44.8 559.9 -65.1 536.1C-85.4 512.3 -103.7 504.8 -123.7 502C-143.8 499.2 -165.6 501.2 -193.6 510.5C-221.7 519.9 -255.9 536.7 -278.4 530.4C-300.8 524.1 -311.4 494.8 -333.5 483.1C-355.5 471.4 -389 477.4 -418.4 472.3C-447.9 467.3 -473.3 451.2 -473.1 419.1C-472.8 386.9 -446.8 338.7 -456.8 315.3C-466.7 291.9 -512.6 293.3 -531.3 278.8C-549.9 264.4 -541.4 234 -559.1 212.1C-576.9 190.1 -620.9 176.4 -621.4 153.2C-621.9 129.9 -578.9 96.9 -574.8 69.8C-570.6 42.7 -605.3 21.3 -640 0L0 0Z" fill="#2e312d"></path><path d="M0 426.7C-14.9 400 -29.8 373.2 -43.4 357.4C-56.9 341.5 -69.1 336.5 -82.5 334.7C-95.8 332.8 -110.4 334.1 -129.1 340.3C-147.8 346.6 -170.6 357.8 -185.6 353.6C-200.5 349.4 -207.6 329.9 -222.3 322.1C-237 314.3 -259.3 318.2 -279 314.9C-298.6 311.5 -315.6 300.8 -315.4 279.4C-315.2 258 -297.9 225.8 -304.5 210.2C-311.1 194.6 -341.7 195.5 -354.2 185.9C-366.6 176.3 -360.9 156 -372.8 141.4C-384.6 126.7 -413.9 117.6 -414.3 102.1C-414.6 86.6 -386 64.6 -383.2 46.5C-380.4 28.4 -403.5 14.2 -426.7 0L0 0Z" fill="#5f7176"></path><path d="M0 213.3C-7.5 200 -14.9 186.6 -21.7 178.7C-28.5 170.8 -34.6 168.3 -41.2 167.3C-47.9 166.4 -55.2 167.1 -64.5 170.2C-73.9 173.3 -85.3 178.9 -92.8 176.8C-100.3 174.7 -103.8 164.9 -111.2 161C-118.5 157.1 -129.7 159.1 -139.5 157.4C-149.3 155.8 -157.8 150.4 -157.7 139.7C-157.6 129 -148.9 112.9 -152.3 105.1C-155.6 97.3 -170.9 97.8 -177.1 92.9C-183.3 88.1 -180.5 78 -186.4 70.7C-192.3 63.4 -207 58.8 -207.1 51.1C-207.3 43.3 -193 32.3 -191.6 23.3C-190.2 14.2 -201.8 7.1 -213.3 0L0 0Z" fill="#8491a0"></path></g><g transform="translate(0, 4000)"><path d="M0 -640C23 -606.3 46 -572.5 67.3 -553.9C88.6 -535.3 108.2 -531.9 132.6 -537.9C157 -543.9 186.3 -559.4 212.4 -560.1C238.5 -560.8 261.5 -546.6 271.4 -517.1C281.2 -487.6 277.9 -442.7 297.1 -430.4C316.3 -418.2 357.9 -438.6 389.9 -440.1C421.9 -441.7 444.4 -424.4 446.1 -395.2C447.8 -366.1 428.9 -325.1 449.3 -310.2C469.8 -295.2 529.8 -306.2 566.7 -297.4C603.6 -288.6 617.6 -260 594.7 -225.5C571.8 -191.1 512.1 -150.9 510.7 -125.9C509.4 -100.9 566.3 -91 597.6 -72.6C628.9 -54.1 634.4 -27.1 640 0L0 0Z" fill="#2e312d"></path><path d="M0 -426.7C15.3 -404.2 30.6 -381.7 44.8 -369.3C59 -356.9 72.1 -354.6 88.4 -358.6C104.7 -362.6 124.2 -372.9 141.6 -373.4C159 -373.8 174.4 -364.4 180.9 -344.7C187.5 -325.1 185.3 -295.1 198.1 -286.9C210.8 -278.8 238.6 -292.4 259.9 -293.4C281.3 -294.4 296.3 -282.9 297.4 -263.5C298.6 -244.1 285.9 -216.8 299.6 -206.8C313.2 -196.8 353.2 -204.2 377.8 -198.3C402.4 -192.4 411.7 -173.3 396.4 -150.4C381.2 -127.4 341.4 -100.6 340.5 -83.9C339.6 -67.2 377.6 -60.7 398.4 -48.4C419.3 -36.1 423 -18 426.7 0L0 0Z" fill="#5f7176"></path><path d="M0 -213.3C7.7 -202.1 15.3 -190.8 22.4 -184.6C29.5 -178.4 36.1 -177.3 44.2 -179.3C52.3 -181.3 62.1 -186.5 70.8 -186.7C79.5 -186.9 87.2 -182.2 90.5 -172.4C93.7 -162.5 92.6 -147.6 99 -143.5C105.4 -139.4 119.3 -146.2 130 -146.7C140.6 -147.2 148.1 -141.5 148.7 -131.7C149.3 -122 143 -108.4 149.8 -103.4C156.6 -98.4 176.6 -102.1 188.9 -99.1C201.2 -96.2 205.9 -86.7 198.2 -75.2C190.6 -63.7 170.7 -50.3 170.2 -42C169.8 -33.6 188.8 -30.3 199.2 -24.2C209.6 -18 211.5 -9 213.3 0L0 0Z" fill="#8491a0"></path></g></svg>