<svg id="visual" viewBox="0 0 1024 3000" width="1024" height="3000" xmlns="http://www.w3.org/2000/svg" xmlns:xlink="http://www.w3.org/1999/xlink" version="1.1"><rect x="0" y="0" width="1024" height="3000" fill="#161513"></rect><defs><linearGradient id="grad1_0" x1="0%" y1="0%" x2="100%" y2="100%"><stop offset="30%" stop-color="#8491a0" stop-opacity="1"></stop><stop offset="70%" stop-color="#8491a0" stop-opacity="1"></stop></linearGradient></defs><defs><linearGradient id="grad1_1" x1="0%" y1="0%" x2="100%" y2="100%"><stop offset="30%" stop-color="#8491a0" stop-opacity="1"></stop><stop offset="70%" stop-color="#5f7176" stop-opacity="1"></stop></linearGradient></defs><defs><linearGradient id="grad1_2" x1="0%" y1="0%" x2="100%" y2="100%"><stop offset="30%" stop-color="#45514d" stop-opacity="1"></stop><stop offset="70%" stop-color="#5f7176" stop-opacity="1"></stop></linearGradient></defs><defs><linearGradient id="grad1_3" x1="0%" y1="0%" x2="100%" y2="100%"><stop offset="30%" stop-color="#45514d" stop-opacity="1"></stop><stop offset="70%" stop-color="#2e312d" stop-opacity="1"></stop></linearGradient></defs><defs><linearGradient id="grad1_4" x1="0%" y1="0%" x2="100%" y2="100%"><stop offset="30%" stop-color="#161513" stop-opacity="1"></stop><stop offset="70%" stop-color="#2e312d" stop-opacity="1"></stop></linearGradient></defs><defs><linearGradient id="grad2_0" x1="0%" y1="0%" x2="100%" y2="100%"><stop offset="30%" stop-color="#8491a0" stop-opacity="1"></stop><stop offset="70%" stop-color="#8491a0" stop-opacity="1"></stop></linearGradient></defs><defs><linearGradient id="grad2_1" x1="0%" y1="0%" x2="100%" y2="100%"><stop offset="30%" stop-color="#5f7176" stop-opacity="1"></stop><stop offset="70%" stop-color="#8491a0" stop-opacity="1"></stop></linearGradient></defs><defs><linearGradient id="grad2_2" x1="0%" y1="0%" x2="100%" y2="100%"><stop offset="30%" stop-color="#5f7176" stop-opacity="1"></stop><stop offset="70%" stop-color="#45514d" stop-opacity="1"></stop></linearGradient></defs><defs><linearGradient id="grad2_3" x1="0%" y1="0%" x2="100%" y2="100%"><stop offset="30%" stop-color="#2e312d" stop-opacity="1"></stop><stop offset="70%" stop-color="#45514d" stop-opacity="1"></stop></linearGradient></defs><defs><linearGradient id="grad2_4" x1="0%" y1="0%" x2="100%" y2="100%"><stop offset="30%" stop-color="#2e312d" stop-opacity="1"></stop><stop offset="70%" stop-color="#161513" stop-opacity="1"></stop></linearGradient></defs><g transform="translate(1024, 0)"><path d="M0 512C-18.9 500.6 -37.9 489.2 -59.7 491.4C-81.5 493.6 -106.1 509.3 -122.5 497.1C-139 485 -147.2 444.9 -161.7 426.4C-176.2 407.8 -197.1 410.8 -209.6 399.3C-222.1 387.9 -226.3 362.2 -244.8 354.7C-263.4 347.2 -296.2 358.1 -304.4 343.6C-312.6 329 -296.1 289.1 -314.4 278.5C-332.7 267.9 -385.7 286.7 -404.9 279.5C-424.1 272.3 -409.6 239.2 -417 218.9C-424.5 198.5 -453.9 190.9 -455.4 172.7C-456.8 154.5 -430.3 125.6 -425.3 104.8C-420.2 84 -436.6 71.3 -454.7 55.2C-472.7 39.1 -492.3 19.5 -512 0L0 0Z" fill="#22231f"></path><path d="M0 409.6C-15.1 400.5 -30.3 391.4 -47.7 393.1C-65.2 394.8 -84.9 407.4 -98 397.7C-111.2 388 -117.7 355.9 -129.4 341.1C-141 326.3 -157.7 328.6 -167.7 319.5C-177.7 310.3 -181.1 289.7 -195.9 283.8C-210.7 277.8 -237 286.5 -243.5 274.9C-250 263.2 -236.9 231.3 -251.5 222.8C-266.1 214.3 -308.5 229.3 -323.9 223.6C-339.3 217.9 -327.7 191.4 -333.6 175.1C-339.6 158.8 -363.1 152.7 -364.3 138.2C-365.4 123.6 -344.3 100.5 -340.2 83.9C-336.2 67.2 -349.3 57.1 -363.7 44.2C-378.2 31.3 -393.9 15.6 -409.6 0L0 0Z" fill="#3a413c"></path><path d="M0 307.2C-11.4 300.4 -22.7 293.5 -35.8 294.8C-48.9 296.1 -63.7 305.6 -73.5 298.3C-83.4 291 -88.3 267 -97 255.8C-105.7 244.7 -118.2 246.5 -125.8 239.6C-133.3 232.8 -135.8 217.3 -146.9 212.8C-158 208.3 -177.7 214.9 -182.6 206.1C-187.5 197.4 -177.7 173.5 -188.6 167.1C-199.6 160.8 -231.4 172 -242.9 167.7C-254.5 163.4 -245.8 143.5 -250.2 131.3C-254.7 119.1 -272.3 114.6 -273.2 103.6C-274.1 92.7 -258.2 75.4 -255.2 62.9C-252.1 50.4 -262 42.8 -272.8 33.1C-283.6 23.4 -295.4 11.7 -307.2 0L0 0Z" fill="#516161"></path><path d="M0 204.8C-7.6 200.2 -15.1 195.7 -23.9 196.6C-32.6 197.4 -42.4 203.7 -49 198.8C-55.6 194 -58.9 178 -64.7 170.5C-70.5 163.1 -78.8 164.3 -83.8 159.7C-88.8 155.2 -90.5 144.9 -97.9 141.9C-105.3 138.9 -118.5 143.2 -121.7 137.4C-125 131.6 -118.4 115.6 -125.7 111.4C-133.1 107.2 -154.3 114.7 -162 111.8C-169.7 108.9 -163.8 95.7 -166.8 87.6C-169.8 79.4 -181.6 76.4 -182.1 69.1C-182.7 61.8 -172.1 50.2 -170.1 41.9C-168.1 33.6 -174.7 28.5 -181.9 22.1C-189.1 15.6 -196.9 7.8 -204.8 0L0 0Z" fill="#6f818b"></path><path d="M0 102.4C-3.8 100.1 -7.6 97.8 -11.9 98.3C-16.3 98.7 -21.2 101.9 -24.5 99.4C-27.8 97 -29.4 89 -32.3 85.3C-35.2 81.6 -39.4 82.2 -41.9 79.9C-44.4 77.6 -45.3 72.4 -49 70.9C-52.7 69.4 -59.2 71.6 -60.9 68.7C-62.5 65.8 -59.2 57.8 -62.9 55.7C-66.5 53.6 -77.1 57.3 -81 55.9C-84.8 54.5 -81.9 47.8 -83.4 43.8C-84.9 39.7 -90.8 38.2 -91.1 34.5C-91.4 30.9 -86.1 25.1 -85.1 21C-84 16.8 -87.3 14.3 -90.9 11C-94.5 7.8 -98.5 3.9 -102.4 0L0 0Z" fill="#8491a0"></path></g><g transform="translate(0, 3000)"><path d="M0 -512C18.7 -494.9 37.4 -477.8 57.4 -472.5C77.4 -467.2 98.7 -473.8 113.4 -460.2C128.2 -446.7 136.3 -413.1 151.8 -400.2C167.2 -387.3 189.9 -395.1 203.1 -386.9C216.3 -378.8 219.9 -354.7 247.7 -358.8C275.4 -362.9 327.3 -395.3 339.5 -383.2C351.7 -371.2 324.3 -314.7 325.6 -288.5C326.9 -262.2 356.9 -266.3 369.5 -255.1C382.1 -243.8 377.4 -217.3 373.7 -196.1C369.9 -175 367.3 -159.2 393.6 -149.3C420 -139.4 475.5 -135.4 487.4 -120.1C499.3 -104.9 467.7 -78.3 464.6 -56.4C461.4 -34.5 486.7 -17.3 512 0L0 0Z" fill="#22231f"></path><path d="M0 -409.6C14.9 -395.9 29.9 -382.3 45.9 -378C61.9 -373.8 79 -379 90.7 -368.2C102.5 -357.3 109.1 -330.5 121.4 -320.1C133.8 -309.8 151.9 -316.1 162.5 -309.6C173 -303 175.9 -283.8 198.1 -287.1C220.3 -290.4 261.8 -316.2 271.6 -306.6C281.4 -296.9 259.5 -251.7 260.5 -230.8C261.5 -209.8 285.5 -213 295.6 -204C305.7 -195.1 301.9 -173.8 298.9 -156.9C296 -140 293.8 -127.3 314.9 -119.4C336 -111.5 380.4 -108.3 389.9 -96.1C399.5 -83.9 374.2 -62.7 371.7 -45.1C369.1 -27.6 389.4 -13.8 409.6 0L0 0Z" fill="#3a413c"></path><path d="M0 -307.2C11.2 -296.9 22.4 -286.7 34.4 -283.5C46.4 -280.3 59.2 -284.3 68.1 -276.1C76.9 -268 81.8 -247.9 91.1 -240.1C100.3 -232.4 113.9 -237.1 121.9 -232.2C129.8 -227.3 132 -212.8 148.6 -215.3C165.3 -217.8 196.4 -237.2 203.7 -229.9C211 -222.7 194.6 -188.8 195.4 -173.1C196.1 -157.3 214.1 -159.8 221.7 -153C229.3 -146.3 226.4 -130.4 224.2 -117.7C222 -105 220.4 -95.5 236.2 -89.6C252 -83.6 285.3 -81.2 292.4 -72.1C299.6 -62.9 280.6 -47 278.8 -33.8C276.9 -20.7 292 -10.4 307.2 0L0 0Z" fill="#516161"></path><path d="M0 -204.8C7.5 -198 14.9 -191.1 23 -189C31 -186.9 39.5 -189.5 45.4 -184.1C51.3 -178.7 54.5 -165.2 60.7 -160.1C66.9 -154.9 76 -158 81.2 -154.8C86.5 -151.5 88 -141.9 99.1 -143.5C110.2 -145.2 130.9 -158.1 135.8 -153.3C140.7 -148.5 129.7 -125.9 130.2 -115.4C130.8 -104.9 142.8 -106.5 147.8 -102C152.9 -97.5 151 -86.9 149.5 -78.4C148 -70 146.9 -63.7 157.5 -59.7C168 -55.8 190.2 -54.2 195 -48.1C199.7 -41.9 187.1 -31.3 185.8 -22.6C184.6 -13.8 194.7 -6.9 204.8 0L0 0Z" fill="#6f818b"></path><path d="M0 -102.4C3.7 -99 7.5 -95.6 11.5 -94.5C15.5 -93.4 19.7 -94.8 22.7 -92C25.6 -89.3 27.3 -82.6 30.4 -80C33.4 -77.5 38 -79 40.6 -77.4C43.3 -75.8 44 -70.9 49.5 -71.8C55.1 -72.6 65.5 -79.1 67.9 -76.6C70.3 -74.2 64.9 -62.9 65.1 -57.7C65.4 -52.4 71.4 -53.3 73.9 -51C76.4 -48.8 75.5 -43.5 74.7 -39.2C74 -35 73.5 -31.8 78.7 -29.9C84 -27.9 95.1 -27.1 97.5 -24C99.9 -21 93.5 -15.7 92.9 -11.3C92.3 -6.9 97.3 -3.5 102.4 0L0 0Z" fill="#8491a0"></path></g></svg>