<svg id="visual" viewBox="0 0 764 4000" width="764" height="4000" xmlns="http://www.w3.org/2000/svg" xmlns:xlink="http://www.w3.org/1999/xlink" version="1.1"><rect x="0" y="0" width="764" height="4000" fill="#161513"></rect><defs><linearGradient id="grad1_0" x1="0%" y1="0%" x2="100%" y2="100%"><stop offset="30%" stop-color="#8491a0" stop-opacity="1"></stop><stop offset="70%" stop-color="#8491a0" stop-opacity="1"></stop></linearGradient></defs><defs><linearGradient id="grad1_1" x1="0%" y1="0%" x2="100%" y2="100%"><stop offset="30%" stop-color="#8491a0" stop-opacity="1"></stop><stop offset="70%" stop-color="#5f7176" stop-opacity="1"></stop></linearGradient></defs><defs><linearGradient id="grad1_2" x1="0%" y1="0%" x2="100%" y2="100%"><stop offset="30%" stop-color="#45514d" stop-opacity="1"></stop><stop offset="70%" stop-color="#5f7176" stop-opacity="1"></stop></linearGradient></defs><defs><linearGradient id="grad1_3" x1="0%" y1="0%" x2="100%" y2="100%"><stop offset="30%" stop-color="#45514d" stop-opacity="1"></stop><stop offset="70%" stop-color="#2e312d" stop-opacity="1"></stop></linearGradient></defs><defs><linearGradient id="grad1_4" x1="0%" y1="0%" x2="100%" y2="100%"><stop offset="30%" stop-color="#161513" stop-opacity="1"></stop><stop offset="70%" stop-color="#2e312d" stop-opacity="1"></stop></linearGradient></defs><defs><linearGradient id="grad2_0" x1="0%" y1="0%" x2="100%" y2="100%"><stop offset="30%" stop-color="#8491a0" stop-opacity="1"></stop><stop offset="70%" stop-color="#8491a0" stop-opacity="1"></stop></linearGradient></defs><defs><linearGradient id="grad2_1" x1="0%" y1="0%" x2="100%" y2="100%"><stop offset="30%" stop-color="#5f7176" stop-opacity="1"></stop><stop offset="70%" stop-color="#8491a0" stop-opacity="1"></stop></linearGradient></defs><defs><linearGradient id="grad2_2" x1="0%" y1="0%" x2="100%" y2="100%"><stop offset="30%" stop-color="#5f7176" stop-opacity="1"></stop><stop offset="70%" stop-color="#45514d" stop-opacity="1"></stop></linearGradient></defs><defs><linearGradient id="grad2_3" x1="0%" y1="0%" x2="100%" y2="100%"><stop offset="30%" stop-color="#2e312d" stop-opacity="1"></stop><stop offset="70%" stop-color="#45514d" stop-opacity="1"></stop></linearGradient></defs><defs><linearGradient id="grad2_4" x1="0%" y1="0%" x2="100%" y2="100%"><stop offset="30%" stop-color="#2e312d" stop-opacity="1"></stop><stop offset="70%" stop-color="#161513" stop-opacity="1"></stop></linearGradient></defs><g transform="translate(764, 0)"><path d="M0 382C-15.1 369.4 -30.3 356.8 -41.1 338.5C-51.9 320.2 -58.5 296.1 -73.2 297.1C-88 298.1 -110.8 324.2 -121.6 320.7C-132.4 317.3 -131.1 284.3 -149.6 285.1C-168.1 285.9 -206.4 320.5 -217 314.4C-227.6 308.2 -210.4 261.3 -218.2 246.3C-226 231.2 -258.7 248.1 -280.7 248.7C-302.6 249.2 -313.8 233.3 -304.5 210.2C-295.3 187 -265.6 156.5 -277.1 145.5C-288.7 134.4 -341.3 142.7 -352.5 133.7C-363.7 124.7 -333.5 98.3 -328.2 80.9C-322.8 63.5 -342.3 55.1 -355.4 43.2C-368.5 31.2 -375.2 15.6 -382 0L0 0Z" fill="#22231f"></path><path d="M0 305.6C-12.1 295.5 -24.2 285.5 -32.9 270.8C-41.6 256.1 -46.8 236.9 -58.6 237.7C-70.4 238.5 -88.7 259.3 -97.3 256.6C-105.9 253.8 -104.9 227.4 -119.7 228.1C-134.5 228.8 -165.2 256.4 -173.6 251.5C-182 246.6 -168.3 209 -174.5 197C-180.8 185 -207 198.5 -224.6 198.9C-242.1 199.4 -251 186.7 -243.6 168.1C-236.2 149.6 -212.5 125.2 -221.7 116.4C-230.9 107.5 -273 114.2 -282 106.9C-291 99.7 -266.8 78.6 -262.5 64.7C-258.3 50.8 -273.8 44.1 -284.3 34.5C-294.8 24.9 -300.2 12.5 -305.6 0L0 0Z" fill="#3a413c"></path><path d="M0 229.2C-9.1 221.7 -18.2 214.1 -24.7 203.1C-31.2 192.1 -35.1 177.7 -43.9 178.3C-52.8 178.9 -66.5 194.5 -73 192.4C-79.5 190.4 -78.7 170.6 -89.8 171.1C-100.9 171.6 -123.9 192.3 -130.2 188.6C-136.5 184.9 -126.2 156.8 -130.9 147.8C-135.6 138.7 -155.2 148.9 -168.4 149.2C-181.6 149.5 -188.3 140 -182.7 126.1C-177.2 112.2 -159.4 93.9 -166.3 87.3C-173.2 80.6 -204.8 85.6 -211.5 80.2C-218.2 74.8 -200.1 59 -196.9 48.5C-193.7 38.1 -205.4 33.1 -213.2 25.9C-221.1 18.7 -225.1 9.4 -229.2 0L0 0Z" fill="#516161"></path><path d="M0 152.8C-6.1 147.8 -12.1 142.7 -16.4 135.4C-20.8 128.1 -23.4 118.4 -29.3 118.8C-35.2 119.2 -44.3 129.7 -48.7 128.3C-53 126.9 -52.5 113.7 -59.9 114C-67.3 114.4 -82.6 128.2 -86.8 125.8C-91 123.3 -84.1 104.5 -87.3 98.5C-90.4 92.5 -103.5 99.3 -112.3 99.5C-121.1 99.7 -125.5 93.3 -121.8 84.1C-118.1 74.8 -106.3 62.6 -110.9 58.2C-115.5 53.8 -136.5 57.1 -141 53.5C-145.5 49.9 -133.4 39.3 -131.3 32.4C-129.1 25.4 -136.9 22.1 -142.2 17.3C-147.4 12.5 -150.1 6.2 -152.8 0L0 0Z" fill="#6f818b"></path><path d="M0 76.4C-3 73.9 -6.1 71.4 -8.2 67.7C-10.4 64 -11.7 59.2 -14.6 59.4C-17.6 59.6 -22.2 64.8 -24.3 64.1C-26.5 63.5 -26.2 56.9 -29.9 57C-33.6 57.2 -41.3 64.1 -43.4 62.9C-45.5 61.6 -42.1 52.3 -43.6 49.3C-45.2 46.2 -51.7 49.6 -56.1 49.7C-60.5 49.8 -62.8 46.7 -60.9 42C-59.1 37.4 -53.1 31.3 -55.4 29.1C-57.7 26.9 -68.3 28.5 -70.5 26.7C-72.7 24.9 -66.7 19.7 -65.6 16.2C-64.6 12.7 -68.5 11 -71.1 8.6C-73.7 6.2 -75 3.1 -76.4 0L0 0Z" fill="#8491a0"></path></g><g transform="translate(0, 4000)"><path d="M0 -382C12 -349.6 24.1 -317.1 37.4 -307.7C50.7 -298.3 65.2 -312 77.1 -312.6C88.9 -313.3 97.9 -301 117 -308.6C136.1 -316.1 165.3 -343.4 177.5 -338.2C189.8 -333.1 185 -295.6 192 -278.2C199 -260.8 217.6 -263.5 224.8 -253.7C232 -244 227.7 -221.9 241.8 -214.2C255.9 -206.4 288.4 -213.1 289.7 -200C290.9 -186.8 260.9 -154 270.1 -141.7C279.3 -129.5 327.7 -138 346 -131.2C364.2 -124.4 352.3 -102.4 344.7 -85C337 -67.5 333.6 -54.7 340.5 -41.3C347.4 -28 364.7 -14 382 0L0 0Z" fill="#22231f"></path><path d="M0 -305.6C9.6 -279.7 19.2 -253.7 29.9 -246.2C40.5 -238.7 52.2 -249.6 61.6 -250.1C71.1 -250.7 78.3 -240.8 93.6 -246.8C108.9 -252.9 132.2 -274.7 142 -270.6C151.8 -266.5 148 -236.5 153.6 -222.5C159.2 -208.6 174.1 -210.8 179.8 -203C185.6 -195.2 182.1 -177.5 193.4 -171.4C204.7 -165.2 230.8 -170.5 231.8 -160C232.8 -149.5 208.7 -123.2 216.1 -113.4C223.4 -103.6 262.1 -110.4 276.8 -105C291.4 -99.5 281.9 -81.9 275.7 -68C269.6 -54 266.9 -43.8 272.4 -33.1C277.9 -22.4 291.8 -11.2 305.6 0L0 0Z" fill="#3a413c"></path><path d="M0 -229.2C7.2 -209.7 14.4 -190.3 22.4 -184.6C30.4 -179 39.1 -187.2 46.2 -187.6C53.3 -188 58.7 -180.6 70.2 -185.1C81.7 -189.6 99.2 -206 106.5 -202.9C113.9 -199.9 111 -177.4 115.2 -166.9C119.4 -156.5 130.6 -158.1 134.9 -152.2C139.2 -146.4 136.6 -133.2 145.1 -128.5C153.5 -123.9 173.1 -127.9 173.8 -120C174.6 -112.1 156.5 -92.4 162 -85C167.6 -77.7 196.6 -82.8 207.6 -78.7C218.5 -74.6 211.4 -61.4 206.8 -51C202.2 -40.5 200.1 -32.8 204.3 -24.8C208.5 -16.8 218.8 -8.4 229.2 0L0 0Z" fill="#516161"></path><path d="M0 -152.8C4.8 -139.8 9.6 -126.9 14.9 -123.1C20.3 -119.3 26.1 -124.8 30.8 -125.1C35.5 -125.3 39.2 -120.4 46.8 -123.4C54.5 -126.4 66.1 -137.3 71 -135.3C75.9 -133.2 74 -118.2 76.8 -111.3C79.6 -104.3 87.1 -105.4 89.9 -101.5C92.8 -97.6 91.1 -88.8 96.7 -85.7C102.4 -82.6 115.4 -85.2 115.9 -80C116.4 -74.7 104.4 -61.6 108 -56.7C111.7 -51.8 131.1 -55.2 138.4 -52.5C145.7 -49.8 140.9 -41 137.9 -34C134.8 -27 133.4 -21.9 136.2 -16.5C139 -11.2 145.9 -5.6 152.8 0L0 0Z" fill="#6f818b"></path><path d="M0 -76.4C2.4 -69.9 4.8 -63.4 7.5 -61.5C10.1 -59.7 13 -62.4 15.4 -62.5C17.8 -62.7 19.6 -60.2 23.4 -61.7C27.2 -63.2 33.1 -68.7 35.5 -67.6C38 -66.6 37 -59.1 38.4 -55.6C39.8 -52.2 43.5 -52.7 45 -50.7C46.4 -48.8 45.5 -44.4 48.4 -42.8C51.2 -41.3 57.7 -42.6 57.9 -40C58.2 -37.4 52.2 -30.8 54 -28.3C55.9 -25.9 65.5 -27.6 69.2 -26.2C72.8 -24.9 70.5 -20.5 68.9 -17C67.4 -13.5 66.7 -10.9 68.1 -8.3C69.5 -5.6 72.9 -2.8 76.4 0L0 0Z" fill="#8491a0"></path></g></svg>