<svg id="visual" viewBox="0 0 1600 900" width="1600" height="900" xmlns="http://www.w3.org/2000/svg" xmlns:xlink="http://www.w3.org/1999/xlink" version="1.1"><rect x="0" y="0" width="1600" height="900" fill="#11071F"></rect><defs><linearGradient id="grad1_0" x1="43.8%" y1="0%" x2="100%" y2="100%"><stop offset="14.444444444444446%" stop-color="#7127ba" stop-opacity="1"></stop><stop offset="85.55555555555554%" stop-color="#7127ba" stop-opacity="1"></stop></linearGradient></defs><defs><linearGradient id="grad1_1" x1="43.8%" y1="0%" x2="100%" y2="100%"><stop offset="14.444444444444446%" stop-color="#7127ba" stop-opacity="1"></stop><stop offset="85.55555555555554%" stop-color="#5b269f" stop-opacity="1"></stop></linearGradient></defs><defs><linearGradient id="grad1_2" x1="43.8%" y1="0%" x2="100%" y2="100%"><stop offset="14.444444444444446%" stop-color="#482384" stop-opacity="1"></stop><stop offset="85.55555555555554%" stop-color="#5b269f" stop-opacity="1"></stop></linearGradient></defs><defs><linearGradient id="grad1_3" x1="43.8%" y1="0%" x2="100%" y2="100%"><stop offset="14.444444444444446%" stop-color="#482384" stop-opacity="1"></stop><stop offset="85.55555555555554%" stop-color="#371e6a" stop-opacity="1"></stop></linearGradient></defs><defs><linearGradient id="grad1_4" x1="43.8%" y1="0%" x2="100%" y2="100%"><stop offset="14.444444444444446%" stop-color="#281950" stop-opacity="1"></stop><stop offset="85.55555555555554%" stop-color="#371e6a" stop-opacity="1"></stop></linearGradient></defs><defs><linearGradient id="grad1_5" x1="43.8%" y1="0%" x2="100%" y2="100%"><stop offset="14.444444444444446%" stop-color="#281950" stop-opacity="1"></stop><stop offset="85.55555555555554%" stop-color="#1b1237" stop-opacity="1"></stop></linearGradient></defs><defs><linearGradient id="grad1_6" x1="43.8%" y1="0%" x2="100%" y2="100%"><stop offset="14.444444444444446%" stop-color="#11071f" stop-opacity="1"></stop><stop offset="85.55555555555554%" stop-color="#1b1237" stop-opacity="1"></stop></linearGradient></defs><defs><linearGradient id="grad2_0" x1="0%" y1="0%" x2="56.3%" y2="100%"><stop offset="14.444444444444446%" stop-color="#7127ba" stop-opacity="1"></stop><stop offset="85.55555555555554%" stop-color="#7127ba" stop-opacity="1"></stop></linearGradient></defs><defs><linearGradient id="grad2_1" x1="0%" y1="0%" x2="56.3%" y2="100%"><stop offset="14.444444444444446%" stop-color="#5b269f" stop-opacity="1"></stop><stop offset="85.55555555555554%" stop-color="#7127ba" stop-opacity="1"></stop></linearGradient></defs><defs><linearGradient id="grad2_2" x1="0%" y1="0%" x2="56.3%" y2="100%"><stop offset="14.444444444444446%" stop-color="#5b269f" stop-opacity="1"></stop><stop offset="85.55555555555554%" stop-color="#482384" stop-opacity="1"></stop></linearGradient></defs><defs><linearGradient id="grad2_3" x1="0%" y1="0%" x2="56.3%" y2="100%"><stop offset="14.444444444444446%" stop-color="#371e6a" stop-opacity="1"></stop><stop offset="85.55555555555554%" stop-color="#482384" stop-opacity="1"></stop></linearGradient></defs><defs><linearGradient id="grad2_4" x1="0%" y1="0%" x2="56.3%" y2="100%"><stop offset="14.444444444444446%" stop-color="#371e6a" stop-opacity="1"></stop><stop offset="85.55555555555554%" stop-color="#281950" stop-opacity="1"></stop></linearGradient></defs><defs><linearGradient id="grad2_5" x1="0%" y1="0%" x2="56.3%" y2="100%"><stop offset="14.444444444444446%" stop-color="#1b1237" stop-opacity="1"></stop><stop offset="85.55555555555554%" stop-color="#281950" stop-opacity="1"></stop></linearGradient></defs><defs><linearGradient id="grad2_6" x1="0%" y1="0%" x2="56.3%" y2="100%"><stop offset="14.444444444444446%" stop-color="#1b1237" stop-opacity="1"></stop><stop offset="85.55555555555554%" stop-color="#11071f" stop-opacity="1"></stop></linearGradient></defs><g transform="translate(1600, 0)"><path d="M0 630C-33.9 630.8 -67.8 631.6 -97.6 616.3C-127.4 601 -153.2 569.7 -174.9 538.3C-196.6 506.9 -214.4 475.4 -228.4 448.2C-242.3 421 -252.4 398.1 -295.1 406.1C-337.7 414.1 -412.9 453 -445.5 445.5C-478.1 438 -468.1 384.2 -482.2 350.3C-496.2 316.4 -534.2 302.5 -533.7 271.9C-533.2 241.4 -494.3 194.2 -504.1 163.8C-513.8 133.4 -572.4 119.8 -601.5 95.3C-630.6 70.8 -630.3 35.4 -630 0L0 0Z" fill="#160e2b"></path><path d="M0 540C-29.1 540.7 -58.1 541.4 -83.7 528.3C-109.2 515.2 -131.3 488.3 -149.9 461.4C-168.6 434.5 -183.8 407.5 -195.7 384.2C-207.7 360.8 -216.4 341.3 -252.9 348.1C-289.5 355 -353.9 388.3 -381.8 381.8C-409.8 375.4 -401.3 329.3 -413.3 300.3C-425.3 271.2 -457.9 259.3 -457.5 233.1C-457.1 206.9 -423.7 166.4 -432.1 140.4C-440.4 114.3 -490.6 102.7 -515.6 81.7C-540.5 60.7 -540.3 30.3 -540 0L0 0Z" fill="#211643"></path><path d="M0 450C-24.2 450.6 -48.4 451.1 -69.7 440.2C-91 429.3 -109.4 406.9 -124.9 384.5C-140.5 362.1 -153.2 339.5 -163.1 320.1C-173.1 300.7 -180.3 284.4 -210.8 290.1C-241.2 295.8 -294.9 323.5 -318.2 318.2C-341.5 312.9 -334.4 274.4 -344.4 250.2C-354.4 226 -381.6 216.1 -381.2 194.2C-380.9 172.4 -353.1 138.7 -360 117C-367 95.3 -408.8 85.5 -429.6 68C-450.4 50.6 -450.2 25.3 -450 0L0 0Z" fill="#2f1c5d"></path><path d="M0 360C-19.4 360.5 -38.7 360.9 -55.8 352.2C-72.8 343.5 -87.5 325.6 -99.9 307.6C-112.4 289.6 -122.5 271.6 -130.5 256.1C-138.5 240.6 -144.2 227.5 -168.6 232.1C-193 236.6 -235.9 258.8 -254.6 254.6C-273.2 250.3 -267.5 219.5 -275.5 200.2C-283.5 180.8 -305.3 172.9 -305 155.4C-304.7 137.9 -282.4 111 -288 93.6C-293.6 76.2 -327.1 68.4 -343.7 54.4C-360.4 40.4 -360.2 20.2 -360 0L0 0Z" fill="#3f2177"></path><path d="M0 270C-14.5 270.3 -29.1 270.7 -41.8 264.1C-54.6 257.6 -65.6 244.2 -75 230.7C-84.3 217.2 -91.9 203.7 -97.9 192.1C-103.8 180.4 -108.2 170.6 -126.5 174.1C-144.7 177.5 -176.9 194.1 -190.9 190.9C-204.9 187.7 -200.6 164.7 -206.6 150.1C-212.7 135.6 -228.9 129.6 -228.7 116.5C-228.5 103.4 -211.8 83.2 -216 70.2C-220.2 57.2 -245.3 51.3 -257.8 40.8C-270.3 30.3 -270.1 15.2 -270 0L0 0Z" fill="#512492"></path><path d="M0 180C-9.7 180.2 -19.4 180.5 -27.9 176.1C-36.4 171.7 -43.8 162.8 -50 153.8C-56.2 144.8 -61.3 135.8 -65.2 128.1C-69.2 120.3 -72.1 113.8 -84.3 116C-96.5 118.3 -118 129.4 -127.3 127.3C-136.6 125.1 -133.8 109.8 -137.8 100.1C-141.8 90.4 -152.6 86.4 -152.5 77.7C-152.4 69 -141.2 55.5 -144 46.8C-146.8 38.1 -163.5 34.2 -171.9 27.2C-180.2 20.2 -180.1 10.1 -180 0L0 0Z" fill="#6627ad"></path><path d="M0 90C-4.8 90.1 -9.7 90.2 -13.9 88C-18.2 85.9 -21.9 81.4 -25 76.9C-28.1 72.4 -30.6 67.9 -32.6 64C-34.6 60.1 -36.1 56.9 -42.2 58C-48.2 59.2 -59 64.7 -63.6 63.6C-68.3 62.6 -66.9 54.9 -68.9 50C-70.9 45.2 -76.3 43.2 -76.2 38.8C-76.2 34.5 -70.6 27.7 -72 23.4C-73.4 19.1 -81.8 17.1 -85.9 13.6C-90.1 10.1 -90 5.1 -90 0L0 0Z" fill="#7127ba"></path></g><g transform="translate(0, 900)"><path d="M0 -630C38.3 -645.3 76.6 -660.6 98.6 -622.2C120.5 -583.9 126.1 -492 153.3 -471.7C180.4 -451.5 229.1 -502.8 254.7 -499.9C280.3 -496.9 282.8 -439.5 300.4 -413.4C318 -387.3 350.7 -392.5 393.9 -393.9C437 -395.2 490.6 -392.9 500.8 -363.8C511 -334.8 477.7 -279.2 478.5 -243.8C479.2 -208.4 514 -193.2 520.2 -169C526.4 -144.8 504 -111.6 517.5 -82C531.1 -52.3 580.5 -26.1 630 0L0 0Z" fill="#160e2b"></path><path d="M0 -540C32.8 -553.1 65.7 -566.2 84.5 -533.4C103.3 -500.5 108.1 -421.7 131.4 -404.3C154.6 -387 196.4 -431 218.3 -428.4C240.2 -425.9 242.4 -376.7 257.4 -354.3C272.5 -332 300.6 -336.4 337.6 -337.6C374.6 -338.8 420.5 -336.7 429.2 -311.9C438 -287 409.5 -239.3 410.1 -209C410.8 -178.6 440.6 -165.6 445.9 -144.9C451.2 -124.2 432 -95.7 443.6 -70.3C455.2 -44.8 497.6 -22.4 540 0L0 0Z" fill="#211643"></path><path d="M0 -450C27.4 -460.9 54.7 -471.8 70.4 -444.5C86.1 -417.1 90.1 -351.4 109.5 -336.9C128.9 -322.5 163.6 -359.2 181.9 -357C200.2 -354.9 202 -313.9 214.5 -295.3C227.1 -276.6 250.5 -280.3 281.3 -281.3C312.2 -282.3 350.4 -280.6 357.7 -259.9C365 -239.2 341.2 -199.4 341.8 -174.1C342.3 -148.9 367.2 -138 371.6 -120.7C376 -103.5 360 -79.7 369.7 -58.6C379.3 -37.4 414.7 -18.7 450 0L0 0Z" fill="#2f1c5d"></path><path d="M0 -360C21.9 -368.7 43.8 -377.5 56.3 -355.6C68.9 -333.7 72.1 -281.1 87.6 -269.6C103.1 -258 130.9 -287.3 145.5 -285.6C160.2 -283.9 161.6 -251.1 171.6 -236.2C181.7 -221.3 200.4 -224.3 225.1 -225.1C249.7 -225.9 280.3 -224.5 286.2 -207.9C292 -191.3 273 -159.5 273.4 -139.3C273.9 -119.1 293.7 -110.4 297.3 -96.6C300.8 -82.8 288 -63.8 295.7 -46.8C303.5 -29.9 331.7 -14.9 360 0L0 0Z" fill="#3f2177"></path><path d="M0 -270C16.4 -276.5 32.8 -283.1 42.2 -266.7C51.6 -250.3 54.1 -210.9 65.7 -202.2C77.3 -193.5 98.2 -215.5 109.2 -214.2C120.1 -212.9 121.2 -188.4 128.7 -177.2C136.3 -166 150.3 -168.2 168.8 -168.8C187.3 -169.4 210.3 -168.4 214.6 -155.9C219 -143.5 204.7 -119.7 205.1 -104.5C205.4 -89.3 220.3 -82.8 223 -72.4C225.6 -62.1 216 -47.8 221.8 -35.1C227.6 -22.4 248.8 -11.2 270 0L0 0Z" fill="#512492"></path><path d="M0 -180C10.9 -184.4 21.9 -188.7 28.2 -177.8C34.4 -166.8 36 -140.6 43.8 -134.8C51.5 -129 65.5 -143.7 72.8 -142.8C80.1 -142 80.8 -125.6 85.8 -118.1C90.8 -110.7 100.2 -112.1 112.5 -112.5C124.9 -112.9 140.2 -112.2 143.1 -104C146 -95.7 136.5 -79.8 136.7 -69.7C136.9 -59.5 146.9 -55.2 148.6 -48.3C150.4 -41.4 144 -31.9 147.9 -23.4C151.7 -14.9 165.9 -7.5 180 0L0 0Z" fill="#6627ad"></path><path d="M0 -90C5.5 -92.2 10.9 -94.4 14.1 -88.9C17.2 -83.4 18 -70.3 21.9 -67.4C25.8 -64.5 32.7 -71.8 36.4 -71.4C40 -71 40.4 -62.8 42.9 -59.1C45.4 -55.3 50.1 -56.1 56.3 -56.3C62.4 -56.5 70.1 -56.1 71.5 -52C73 -47.8 68.2 -39.9 68.4 -34.8C68.5 -29.8 73.4 -27.6 74.3 -24.1C75.2 -20.7 72 -15.9 73.9 -11.7C75.9 -7.5 82.9 -3.7 90 0L0 0Z" fill="#7127ba"></path></g></svg>