<svg id="visual" viewBox="0 0 1600 4000" width="1600" height="4000" xmlns="http://www.w3.org/2000/svg" xmlns:xlink="http://www.w3.org/1999/xlink" version="1.1"><rect x="0" y="0" width="1600" height="4000" fill="#11071F"></rect><defs><linearGradient id="grad1_0" x1="0%" y1="100%" x2="100%" y2="0%"><stop offset="30%" stop-color="#7127ba" stop-opacity="1"></stop><stop offset="70%" stop-color="#7127ba" stop-opacity="1"></stop></linearGradient></defs><defs><linearGradient id="grad1_1" x1="0%" y1="100%" x2="100%" y2="0%"><stop offset="30%" stop-color="#7127ba" stop-opacity="1"></stop><stop offset="70%" stop-color="#5e26a3" stop-opacity="1"></stop></linearGradient></defs><defs><linearGradient id="grad1_2" x1="0%" y1="100%" x2="100%" y2="0%"><stop offset="30%" stop-color="#4d248c" stop-opacity="1"></stop><stop offset="70%" stop-color="#5e26a3" stop-opacity="1"></stop></linearGradient></defs><defs><linearGradient id="grad1_3" x1="0%" y1="100%" x2="100%" y2="0%"><stop offset="30%" stop-color="#4d248c" stop-opacity="1"></stop><stop offset="70%" stop-color="#3e2075" stop-opacity="1"></stop></linearGradient></defs><defs><linearGradient id="grad1_4" x1="0%" y1="100%" x2="100%" y2="0%"><stop offset="30%" stop-color="#301c5f" stop-opacity="1"></stop><stop offset="70%" stop-color="#3e2075" stop-opacity="1"></stop></linearGradient></defs><defs><linearGradient id="grad1_5" x1="0%" y1="100%" x2="100%" y2="0%"><stop offset="30%" stop-color="#301c5f" stop-opacity="1"></stop><stop offset="70%" stop-color="#241749" stop-opacity="1"></stop></linearGradient></defs><defs><linearGradient id="grad1_6" x1="0%" y1="100%" x2="100%" y2="0%"><stop offset="30%" stop-color="#191233" stop-opacity="1"></stop><stop offset="70%" stop-color="#241749" stop-opacity="1"></stop></linearGradient></defs><defs><linearGradient id="grad1_7" x1="0%" y1="100%" x2="100%" y2="0%"><stop offset="30%" stop-color="#191233" stop-opacity="1"></stop><stop offset="70%" stop-color="#11071f" stop-opacity="1"></stop></linearGradient></defs><defs><linearGradient id="grad2_0" x1="0%" y1="100%" x2="100%" y2="0%"><stop offset="30%" stop-color="#7127ba" stop-opacity="1"></stop><stop offset="70%" stop-color="#7127ba" stop-opacity="1"></stop></linearGradient></defs><defs><linearGradient id="grad2_1" x1="0%" y1="100%" x2="100%" y2="0%"><stop offset="30%" stop-color="#5e26a3" stop-opacity="1"></stop><stop offset="70%" stop-color="#7127ba" stop-opacity="1"></stop></linearGradient></defs><defs><linearGradient id="grad2_2" x1="0%" y1="100%" x2="100%" y2="0%"><stop offset="30%" stop-color="#5e26a3" stop-opacity="1"></stop><stop offset="70%" stop-color="#4d248c" stop-opacity="1"></stop></linearGradient></defs><defs><linearGradient id="grad2_3" x1="0%" y1="100%" x2="100%" y2="0%"><stop offset="30%" stop-color="#3e2075" stop-opacity="1"></stop><stop offset="70%" stop-color="#4d248c" stop-opacity="1"></stop></linearGradient></defs><defs><linearGradient id="grad2_4" x1="0%" y1="100%" x2="100%" y2="0%"><stop offset="30%" stop-color="#3e2075" stop-opacity="1"></stop><stop offset="70%" stop-color="#301c5f" stop-opacity="1"></stop></linearGradient></defs><defs><linearGradient id="grad2_5" x1="0%" y1="100%" x2="100%" y2="0%"><stop offset="30%" stop-color="#241749" stop-opacity="1"></stop><stop offset="70%" stop-color="#301c5f" stop-opacity="1"></stop></linearGradient></defs><defs><linearGradient id="grad2_6" x1="0%" y1="100%" x2="100%" y2="0%"><stop offset="30%" stop-color="#241749" stop-opacity="1"></stop><stop offset="70%" stop-color="#191233" stop-opacity="1"></stop></linearGradient></defs><defs><linearGradient id="grad2_7" x1="0%" y1="100%" x2="100%" y2="0%"><stop offset="30%" stop-color="#11071f" stop-opacity="1"></stop><stop offset="70%" stop-color="#191233" stop-opacity="1"></stop></linearGradient></defs><g transform="translate(1600, 4000)"><path d="M-1600 0C-1607.4 -68.1 -1614.9 -136.3 -1568.5 -190.4C-1522.1 -244.6 -1421.9 -284.9 -1412.7 -348.2C-1403.6 -411.5 -1485.4 -497.9 -1496 -567.4C-1506.6 -636.8 -1446 -689.2 -1364.5 -716.1C-1283 -743.1 -1180.6 -744.5 -1138.2 -785.6C-1095.8 -826.8 -1113.3 -907.8 -1101.8 -976.1C-1090.3 -1044.5 -1049.7 -1100.2 -985.4 -1112.3C-921.1 -1124.4 -833.1 -1092.8 -801.5 -1161.2C-770 -1229.6 -795 -1398 -743.1 -1415.8C-691.2 -1433.7 -562.5 -1300.9 -485.5 -1280C-408.4 -1259.2 -383.1 -1350.2 -337 -1367.1C-290.8 -1383.9 -223.9 -1326.6 -164.3 -1353.1C-104.7 -1379.5 -52.3 -1489.8 0 -1600L0 0Z" fill="#150d29"></path><path d="M-1400 0C-1406.5 -59.6 -1413 -119.2 -1372.4 -166.6C-1331.8 -214.1 -1244.2 -249.3 -1236.1 -304.7C-1228.1 -360.1 -1299.7 -435.7 -1309 -496.4C-1318.3 -557.2 -1265.2 -603.1 -1193.9 -626.6C-1122.6 -650.2 -1033 -651.4 -995.9 -687.4C-958.8 -723.5 -974.2 -794.3 -964.1 -854.1C-954 -913.9 -918.5 -962.7 -862.2 -973.3C-806 -983.8 -728.9 -956.2 -701.3 -1016.1C-673.8 -1075.9 -695.6 -1223.3 -650.2 -1238.9C-604.8 -1254.4 -492.2 -1138.3 -424.8 -1120C-357.4 -1101.8 -335.2 -1181.5 -294.8 -1196.2C-254.5 -1211 -195.9 -1160.8 -143.8 -1183.9C-91.6 -1207.1 -45.8 -1303.5 0 -1400L0 0Z" fill="#1f143e"></path><path d="M-1200 0C-1205.6 -51.1 -1211.1 -102.2 -1176.4 -142.8C-1141.6 -183.5 -1066.4 -213.7 -1059.5 -261.2C-1052.7 -308.6 -1114.1 -373.5 -1122 -425.5C-1130 -477.6 -1084.5 -516.9 -1023.4 -537.1C-962.2 -557.3 -885.5 -558.3 -853.6 -589.2C-821.8 -620.1 -835 -680.8 -826.4 -732.1C-817.7 -783.3 -787.3 -825.1 -739.1 -834.2C-690.8 -843.3 -624.8 -819.6 -601.2 -870.9C-577.5 -922.2 -596.2 -1048.5 -557.3 -1061.9C-518.4 -1075.2 -421.9 -975.7 -364.1 -960C-306.3 -944.4 -287.3 -1012.7 -252.7 -1025.3C-218.1 -1038 -167.9 -995 -123.2 -1014.8C-78.5 -1034.6 -39.3 -1117.3 0 -1200L0 0Z" fill="#2a1a54"></path><path d="M-1000 0C-1004.6 -42.6 -1009.3 -85.2 -980.3 -119C-951.3 -152.9 -888.7 -178 -883 -217.6C-877.2 -257.2 -928.4 -311.2 -935 -354.6C-941.6 -398 -903.7 -430.8 -852.8 -447.6C-801.9 -464.4 -737.9 -465.3 -711.4 -491C-684.9 -516.8 -695.8 -567.4 -688.6 -610.1C-681.4 -652.8 -656.1 -687.6 -615.9 -695.2C-575.7 -702.7 -520.7 -683 -501 -725.8C-481.3 -768.5 -496.9 -873.8 -464.4 -884.9C-432 -896 -351.6 -813.1 -303.4 -800C-255.3 -787 -239.4 -843.9 -210.6 -854.4C-181.8 -865 -139.9 -829.1 -102.7 -845.7C-65.4 -862.2 -32.7 -931.1 0 -1000L0 0Z" fill="#371e6a"></path><path d="M-800 0C-803.7 -34.1 -807.4 -68.1 -784.2 -95.2C-761 -122.3 -710.9 -142.4 -706.4 -174.1C-701.8 -205.8 -742.7 -249 -748 -283.7C-753.3 -318.4 -723 -344.6 -682.2 -358.1C-641.5 -371.5 -590.3 -372.2 -569.1 -392.8C-547.9 -413.4 -556.7 -453.9 -550.9 -488.1C-545.1 -522.2 -524.9 -550.1 -492.7 -556.1C-460.5 -562.2 -416.5 -546.4 -400.8 -580.6C-385 -614.8 -397.5 -699 -371.5 -707.9C-345.6 -716.8 -281.2 -650.4 -242.7 -640C-204.2 -629.6 -191.5 -675.1 -168.5 -683.5C-145.4 -692 -112 -663.3 -82.1 -676.5C-52.3 -689.8 -26.2 -744.9 0 -800L0 0Z" fill="#452281"></path><path d="M-600 0C-602.8 -25.5 -605.6 -51.1 -588.2 -71.4C-570.8 -91.7 -533.2 -106.8 -529.8 -130.6C-526.3 -154.3 -557 -186.7 -561 -212.8C-565 -238.8 -542.2 -258.5 -511.7 -268.6C-481.1 -278.6 -442.7 -279.2 -426.8 -294.6C-410.9 -310.1 -417.5 -340.4 -413.2 -366C-408.9 -391.7 -393.6 -412.6 -369.5 -417.1C-345.4 -421.6 -312.4 -409.8 -300.6 -435.5C-288.8 -461.1 -298.1 -524.3 -278.7 -530.9C-259.2 -537.6 -210.9 -487.8 -182 -480C-153.2 -472.2 -143.7 -506.3 -126.4 -512.7C-109.1 -519 -84 -497.5 -61.6 -507.4C-39.3 -517.3 -19.6 -558.7 0 -600L0 0Z" fill="#562598"></path><path d="M-400 0C-401.9 -17 -403.7 -34.1 -392.1 -47.6C-380.5 -61.2 -355.5 -71.2 -353.2 -87.1C-350.9 -102.9 -371.4 -124.5 -374 -141.8C-376.7 -159.2 -361.5 -172.3 -341.1 -179C-320.7 -185.8 -295.2 -186.1 -284.5 -196.4C-273.9 -206.7 -278.3 -226.9 -275.5 -244C-272.6 -261.1 -262.4 -275 -246.4 -278.1C-230.3 -281.1 -208.3 -273.2 -200.4 -290.3C-192.5 -307.4 -198.7 -349.5 -185.8 -354C-172.8 -358.4 -140.6 -325.2 -121.4 -320C-102.1 -314.8 -95.8 -337.6 -84.2 -341.8C-72.7 -346 -56 -331.7 -41.1 -338.3C-26.2 -344.9 -13.1 -372.4 0 -400L0 0Z" fill="#6827af"></path><path d="M-200 0C-200.9 -8.5 -201.9 -17 -196.1 -23.8C-190.3 -30.6 -177.7 -35.6 -176.6 -43.5C-175.4 -51.4 -185.7 -62.2 -187 -70.9C-188.3 -79.6 -180.7 -86.2 -170.6 -89.5C-160.4 -92.9 -147.6 -93.1 -142.3 -98.2C-137 -103.4 -139.2 -113.5 -137.7 -122C-136.3 -130.6 -131.2 -137.5 -123.2 -139C-115.1 -140.5 -104.1 -136.6 -100.2 -145.2C-96.3 -153.7 -99.4 -174.8 -92.9 -177C-86.4 -179.2 -70.3 -162.6 -60.7 -160C-51.1 -157.4 -47.9 -168.8 -42.1 -170.9C-36.4 -173 -28 -165.8 -20.5 -169.1C-13.1 -172.4 -6.5 -186.2 0 -200L0 0Z" fill="#7127ba"></path></g><g transform="translate(0, 0)"><path d="M1600 0C1496 53.1 1391.9 106.3 1380.9 167.7C1369.8 229 1451.7 298.6 1471.9 362.8C1492.2 427 1451 485.7 1400.7 531.2C1350.3 576.7 1291 608.8 1268.9 665.9C1246.7 723.1 1261.8 805.3 1217.2 840.2C1172.6 875.1 1068.3 862.6 1031.4 913.8C994.6 964.9 1025.3 1079.6 985.4 1112.3C945.5 1145 835 1095.6 784.5 1136.5C733.9 1177.5 743.3 1308.8 696.6 1327.3C649.9 1345.8 547.2 1251.6 492.9 1299.7C438.6 1347.8 432.6 1538.1 382.9 1553.5C333.2 1568.9 239.6 1409.2 168.5 1387.8C97.4 1366.4 48.7 1483.2 0 1600L0 0Z" fill="#150d29"></path><path d="M1400 0C1309 46.5 1217.9 93 1208.3 146.7C1198.6 200.4 1270.2 261.3 1288 317.5C1305.7 373.6 1269.6 425 1225.6 464.8C1181.5 504.6 1129.6 532.7 1110.3 582.7C1090.9 632.7 1104.1 704.6 1065 735.1C1026 765.7 934.7 754.8 902.5 799.6C870.3 844.3 897.1 944.7 862.2 973.3C827.3 1001.8 730.7 958.6 686.4 994.5C642.2 1030.3 650.4 1145.2 609.5 1161.4C568.7 1177.6 478.8 1095.1 431.3 1137.2C383.8 1179.3 378.6 1345.9 335 1359.3C291.5 1372.8 209.7 1233.1 147.4 1214.3C85.2 1195.6 42.6 1297.8 0 1400L0 0Z" fill="#1f143e"></path><path d="M1200 0C1122 39.9 1044 79.7 1035.6 125.7C1027.3 171.8 1088.7 224 1104 272.1C1119.2 320.2 1088.2 364.3 1050.5 398.4C1012.8 432.5 968.2 456.6 951.6 499.5C935 542.3 946.4 604 912.9 630.1C879.4 656.3 801.2 647 773.6 685.3C746 723.7 769 809.7 739.1 834.2C709.1 858.7 626.3 821.7 588.4 852.4C550.5 883.1 557.5 981.6 522.5 995.5C487.5 1009.4 410.4 938.7 369.7 974.8C328.9 1010.8 324.5 1153.6 287.2 1165.1C249.9 1176.7 179.7 1056.9 126.4 1040.9C73 1024.8 36.5 1112.4 0 1200L0 0Z" fill="#2a1a54"></path><path d="M1000 0C935 33.2 870 66.4 863 104.8C856.1 143.1 907.3 186.6 920 226.8C932.7 266.9 906.9 303.6 875.4 332C844 360.4 806.9 380.5 793 416.2C779.2 451.9 788.6 503.3 760.7 525.1C732.9 546.9 667.7 539.2 644.7 571.1C621.6 603.1 640.8 674.8 615.9 695.2C590.9 715.6 521.9 684.7 490.3 710.3C458.7 735.9 464.6 818 435.4 829.6C406.2 841.1 342 782.2 308.1 812.3C274.1 842.3 270.4 961.3 239.3 970.9C208.2 980.5 149.8 880.8 105.3 867.4C60.9 854 30.4 927 0 1000L0 0Z" fill="#371e6a"></path><path d="M800 0C748 26.6 696 53.1 690.4 83.8C684.9 114.5 725.8 149.3 736 181.4C746.1 213.5 725.5 242.9 700.3 265.6C675.2 288.3 645.5 304.4 634.4 333C623.4 361.6 630.9 402.6 608.6 420.1C586.3 437.5 534.1 431.3 515.7 456.9C497.3 482.5 512.6 539.8 492.7 556.1C472.8 572.5 417.5 547.8 392.2 568.3C367 588.7 371.7 654.4 348.3 663.6C325 672.9 273.6 625.8 246.5 649.8C219.3 673.9 216.3 769.1 191.5 776.8C166.6 784.4 119.8 704.6 84.3 693.9C48.7 683.2 24.3 741.6 0 800L0 0Z" fill="#452281"></path><path d="M600 0C561 19.9 522 39.9 517.8 62.9C513.7 85.9 544.4 112 552 136.1C559.6 160.1 544.1 182.2 525.2 199.2C506.4 216.2 484.1 228.3 475.8 249.7C467.5 271.2 473.2 302 456.4 315.1C439.7 328.1 400.6 323.5 386.8 342.7C373 361.8 384.5 404.9 369.5 417.1C354.6 429.4 313.1 410.8 294.2 426.2C275.2 441.6 278.7 490.8 261.2 497.7C243.7 504.7 205.2 469.3 184.8 487.4C164.5 505.4 162.2 576.8 143.6 582.6C124.9 588.3 89.9 528.5 63.2 520.4C36.5 512.4 18.3 556.2 0 600L0 0Z" fill="#562598"></path><path d="M400 0C374 13.3 348 26.6 345.2 41.9C342.4 57.3 362.9 74.7 368 90.7C373.1 106.7 362.7 121.4 350.2 132.8C337.6 144.2 322.7 152.2 317.2 166.5C311.7 180.8 315.5 201.3 304.3 210C293.1 218.8 267.1 215.7 257.9 228.4C248.7 241.2 256.3 269.9 246.4 278.1C236.4 286.2 208.8 273.9 196.1 284.1C183.5 294.4 185.8 327.2 174.2 331.8C162.5 336.5 136.8 312.9 123.2 324.9C109.6 336.9 108.2 384.5 95.7 388.4C83.3 392.2 59.9 352.3 42.1 347C24.3 341.6 12.2 370.8 0 400L0 0Z" fill="#6827af"></path><path d="M200 0C187 6.6 174 13.3 172.6 21C171.2 28.6 181.5 37.3 184 45.4C186.5 53.4 181.4 60.7 175.1 66.4C168.8 72.1 161.4 76.1 158.6 83.2C155.8 90.4 157.7 100.7 152.1 105C146.6 109.4 133.5 107.8 128.9 114.2C124.3 120.6 128.2 135 123.2 139C118.2 143.1 104.4 136.9 98.1 142.1C91.7 147.2 92.9 163.6 87.1 165.9C81.2 168.2 68.4 156.4 61.6 162.5C54.8 168.5 54.1 192.3 47.9 194.2C41.6 196.1 30 176.2 21.1 173.5C12.2 170.8 6.1 185.4 0 200L0 0Z" fill="#7127ba"></path></g></svg>