<svg id="visual" viewBox="0 0 1600 4000" width="1600" height="4000" xmlns="http://www.w3.org/2000/svg" xmlns:xlink="http://www.w3.org/1999/xlink" version="1.1"><rect x="0" y="0" width="1600" height="4000" fill="#11071F"></rect><defs><linearGradient id="grad1_0" x1="0%" y1="0%" x2="100%" y2="100%"><stop offset="30%" stop-color="#7127ba" stop-opacity="1"></stop><stop offset="70%" stop-color="#7127ba" stop-opacity="1"></stop></linearGradient></defs><defs><linearGradient id="grad1_1" x1="0%" y1="0%" x2="100%" y2="100%"><stop offset="30%" stop-color="#7127ba" stop-opacity="1"></stop><stop offset="70%" stop-color="#5e26a3" stop-opacity="1"></stop></linearGradient></defs><defs><linearGradient id="grad1_2" x1="0%" y1="0%" x2="100%" y2="100%"><stop offset="30%" stop-color="#4d248c" stop-opacity="1"></stop><stop offset="70%" stop-color="#5e26a3" stop-opacity="1"></stop></linearGradient></defs><defs><linearGradient id="grad1_3" x1="0%" y1="0%" x2="100%" y2="100%"><stop offset="30%" stop-color="#4d248c" stop-opacity="1"></stop><stop offset="70%" stop-color="#3e2075" stop-opacity="1"></stop></linearGradient></defs><defs><linearGradient id="grad1_4" x1="0%" y1="0%" x2="100%" y2="100%"><stop offset="30%" stop-color="#301c5f" stop-opacity="1"></stop><stop offset="70%" stop-color="#3e2075" stop-opacity="1"></stop></linearGradient></defs><defs><linearGradient id="grad1_5" x1="0%" y1="0%" x2="100%" y2="100%"><stop offset="30%" stop-color="#301c5f" stop-opacity="1"></stop><stop offset="70%" stop-color="#241749" stop-opacity="1"></stop></linearGradient></defs><defs><linearGradient id="grad1_6" x1="0%" y1="0%" x2="100%" y2="100%"><stop offset="30%" stop-color="#191233" stop-opacity="1"></stop><stop offset="70%" stop-color="#241749" stop-opacity="1"></stop></linearGradient></defs><defs><linearGradient id="grad1_7" x1="0%" y1="0%" x2="100%" y2="100%"><stop offset="30%" stop-color="#191233" stop-opacity="1"></stop><stop offset="70%" stop-color="#11071f" stop-opacity="1"></stop></linearGradient></defs><defs><linearGradient id="grad2_0" x1="0%" y1="0%" x2="100%" y2="100%"><stop offset="30%" stop-color="#7127ba" stop-opacity="1"></stop><stop offset="70%" stop-color="#7127ba" stop-opacity="1"></stop></linearGradient></defs><defs><linearGradient id="grad2_1" x1="0%" y1="0%" x2="100%" y2="100%"><stop offset="30%" stop-color="#5e26a3" stop-opacity="1"></stop><stop offset="70%" stop-color="#7127ba" stop-opacity="1"></stop></linearGradient></defs><defs><linearGradient id="grad2_2" x1="0%" y1="0%" x2="100%" y2="100%"><stop offset="30%" stop-color="#5e26a3" stop-opacity="1"></stop><stop offset="70%" stop-color="#4d248c" stop-opacity="1"></stop></linearGradient></defs><defs><linearGradient id="grad2_3" x1="0%" y1="0%" x2="100%" y2="100%"><stop offset="30%" stop-color="#3e2075" stop-opacity="1"></stop><stop offset="70%" stop-color="#4d248c" stop-opacity="1"></stop></linearGradient></defs><defs><linearGradient id="grad2_4" x1="0%" y1="0%" x2="100%" y2="100%"><stop offset="30%" stop-color="#3e2075" stop-opacity="1"></stop><stop offset="70%" stop-color="#301c5f" stop-opacity="1"></stop></linearGradient></defs><defs><linearGradient id="grad2_5" x1="0%" y1="0%" x2="100%" y2="100%"><stop offset="30%" stop-color="#241749" stop-opacity="1"></stop><stop offset="70%" stop-color="#301c5f" stop-opacity="1"></stop></linearGradient></defs><defs><linearGradient id="grad2_6" x1="0%" y1="0%" x2="100%" y2="100%"><stop offset="30%" stop-color="#241749" stop-opacity="1"></stop><stop offset="70%" stop-color="#191233" stop-opacity="1"></stop></linearGradient></defs><defs><linearGradient id="grad2_7" x1="0%" y1="0%" x2="100%" y2="100%"><stop offset="30%" stop-color="#11071f" stop-opacity="1"></stop><stop offset="70%" stop-color="#191233" stop-opacity="1"></stop></linearGradient></defs><g transform="translate(1600, 0)"><path d="M0 1600C-66.7 1602.5 -133.4 1605 -191.2 1574.4C-248.9 1543.8 -297.8 1480.1 -363.3 1473.9C-428.8 1467.7 -510.9 1519 -567.4 1496C-623.9 1473.1 -654.7 1375.8 -681.7 1299C-708.8 1222.1 -731.9 1165.7 -799.3 1157.9C-866.6 1150.1 -978.2 1190.9 -1033.1 1166.2C-1088.1 1141.4 -1086.6 1051.1 -1131.7 1002.6C-1176.9 954.2 -1268.8 947.6 -1295.4 894.1C-1321.9 840.6 -1283.2 740.2 -1267.1 665C-1251 589.9 -1257.6 540 -1315.6 498.9C-1373.6 457.8 -1483 425.5 -1511.8 372.6C-1540.6 319.8 -1488.8 246.4 -1490.1 180.9C-1491.3 115.4 -1545.7 57.7 -1600 0L0 0Z" fill="#150d29"></path><path d="M0 1400C-58.4 1402.2 -116.7 1404.4 -167.3 1377.6C-217.8 1350.9 -260.6 1295.1 -317.9 1289.7C-375.2 1284.2 -447 1329.1 -496.4 1309C-545.9 1288.9 -572.9 1203.8 -596.5 1136.6C-620.2 1069.4 -640.4 1020 -699.4 1013.2C-758.3 1006.4 -855.9 1042.1 -904 1020.4C-952.1 998.7 -950.8 919.7 -990.3 877.3C-1029.8 834.9 -1110.2 829.2 -1133.5 782.4C-1156.7 735.5 -1122.8 647.6 -1108.7 581.9C-1094.6 516.1 -1100.4 472.5 -1151.1 436.6C-1201.9 400.6 -1297.6 372.3 -1322.8 326C-1348 279.8 -1302.7 215.6 -1303.8 158.3C-1304.9 101 -1352.5 50.5 -1400 0L0 0Z" fill="#1f143e"></path><path d="M0 1200C-50 1201.9 -100 1203.8 -143.4 1180.8C-186.7 1157.9 -223.3 1110.1 -272.5 1105.4C-321.6 1100.8 -383.2 1139.2 -425.5 1122C-467.9 1104.8 -491.1 1031.8 -511.3 974.2C-531.6 916.6 -548.9 874.3 -599.5 868.5C-650 862.6 -733.6 893.2 -774.9 874.6C-816.1 856.1 -814.9 788.3 -848.8 752C-882.7 715.6 -951.6 710.7 -971.5 670.6C-991.5 630.5 -962.4 555.1 -950.3 498.8C-938.2 442.4 -943.2 405 -986.7 374.2C-1030.2 343.4 -1112.2 319.1 -1133.8 279.5C-1155.4 239.8 -1116.6 184.8 -1117.5 135.7C-1118.5 86.6 -1159.2 43.3 -1200 0L0 0Z" fill="#2a1a54"></path><path d="M0 1000C-41.7 1001.6 -83.4 1003.2 -119.5 984C-155.6 964.9 -186.1 925.1 -227.1 921.2C-268 917.3 -319.3 949.4 -354.6 935C-389.9 920.7 -409.2 859.9 -426.1 811.9C-443 763.8 -457.4 728.6 -499.5 723.7C-541.6 718.8 -611.3 744.3 -645.7 728.9C-680.1 713.4 -679.1 656.9 -707.3 626.7C-735.6 596.4 -793 592.3 -809.6 558.8C-826.2 525.4 -802 462.6 -791.9 415.6C-781.9 368.7 -786 337.5 -822.2 311.8C-858.5 286.1 -926.8 265.9 -944.8 232.9C-962.9 199.9 -930.5 154 -931.3 113.1C-932.1 72.1 -966 36.1 -1000 0L0 0Z" fill="#371e6a"></path><path d="M0 800C-33.3 801.3 -66.7 802.5 -95.6 787.2C-124.5 771.9 -148.9 740 -181.6 736.9C-214.4 733.8 -255.4 759.5 -283.7 748C-311.9 736.5 -327.4 687.9 -340.9 649.5C-354.4 611.1 -366 582.9 -399.6 579C-433.3 575.1 -489.1 595.5 -516.6 583.1C-544.1 570.7 -543.3 525.5 -565.9 501.3C-588.5 477.1 -634.4 473.8 -647.7 447.1C-661 420.3 -641.6 370.1 -633.5 332.5C-625.5 294.9 -628.8 270 -657.8 249.5C-686.8 228.9 -741.5 212.7 -755.9 186.3C-770.3 159.9 -744.4 123.2 -745 90.5C-745.7 57.7 -772.8 28.9 -800 0L0 0Z" fill="#452281"></path><path d="M0 600C-25 600.9 -50 601.9 -71.7 590.4C-93.4 578.9 -111.7 555 -136.2 552.7C-160.8 550.4 -191.6 569.6 -212.8 561C-233.9 552.4 -245.5 515.9 -255.7 487.1C-265.8 458.3 -274.5 437.2 -299.7 434.2C-325 431.3 -366.8 446.6 -387.4 437.3C-408.1 428 -407.5 394.2 -424.4 376C-441.3 357.8 -475.8 355.4 -485.8 335.3C-495.7 315.2 -481.2 277.6 -475.2 249.4C-469.1 221.2 -471.6 202.5 -493.3 187.1C-515.1 171.7 -556.1 159.5 -566.9 139.7C-577.7 119.9 -558.3 92.4 -558.8 67.8C-559.2 43.3 -579.6 21.6 -600 0L0 0Z" fill="#562598"></path><path d="M0 400C-16.7 400.6 -33.3 401.3 -47.8 393.6C-62.2 386 -74.4 370 -90.8 368.5C-107.2 366.9 -127.7 379.7 -141.8 374C-156 368.3 -163.7 343.9 -170.4 324.7C-177.2 305.5 -183 291.4 -199.8 289.5C-216.7 287.5 -244.5 297.7 -258.3 291.5C-272 285.4 -271.6 262.8 -282.9 250.7C-294.2 238.5 -317.2 236.9 -323.8 223.5C-330.5 210.2 -320.8 185 -316.8 166.3C-312.7 147.5 -314.4 135 -328.9 124.7C-343.4 114.5 -370.7 106.4 -377.9 93.2C-385.1 79.9 -372.2 61.6 -372.5 45.2C-372.8 28.9 -386.4 14.4 -400 0L0 0Z" fill="#6827af"></path><path d="M0 200C-8.3 200.3 -16.7 200.6 -23.9 196.8C-31.1 193 -37.2 185 -45.4 184.2C-53.6 183.5 -63.9 189.9 -70.9 187C-78 184.1 -81.8 172 -85.2 162.4C-88.6 152.8 -91.5 145.7 -99.9 144.7C-108.3 143.8 -122.3 148.9 -129.1 145.8C-136 142.7 -135.8 131.4 -141.5 125.3C-147.1 119.3 -158.6 118.5 -161.9 111.8C-165.2 105.1 -160.4 92.5 -158.4 83.1C-156.4 73.7 -157.2 67.5 -164.4 62.4C-171.7 57.2 -185.4 53.2 -189 46.6C-192.6 40 -186.1 30.8 -186.3 22.6C-186.4 14.4 -193.2 7.2 -200 0L0 0Z" fill="#7127ba"></path></g><g transform="translate(0, 4000)"><path d="M0 -1600C68.6 -1613.2 137.2 -1626.3 191.5 -1577.4C245.9 -1528.5 286 -1417.5 337.2 -1368.1C388.4 -1318.6 450.6 -1330.6 495.4 -1306.2C540.2 -1281.8 567.7 -1220.9 651.1 -1240.5C734.5 -1260.1 873.8 -1360.2 908.9 -1316.8C944 -1273.4 874.7 -1086.5 906.5 -1023.2C938.2 -959.9 1071 -1020.3 1143 -1012.6C1215 -1004.9 1226.3 -929.2 1265.7 -873.7C1305.2 -818.1 1372.7 -782.7 1364.5 -716.1C1356.3 -649.6 1272.4 -552 1302.5 -494C1332.6 -435.9 1476.8 -417.5 1488.5 -366.9C1500.2 -316.3 1379.4 -233.6 1375.9 -167.1C1372.4 -100.6 1486.2 -50.3 1600 0L0 0Z" fill="#150d29"></path><path d="M0 -1400C60 -1411.5 120 -1423 167.6 -1380.2C215.2 -1337.4 250.3 -1240.3 295 -1197C339.8 -1153.8 394.2 -1164.3 433.5 -1142.9C472.7 -1121.6 496.7 -1068.3 569.7 -1085.5C642.7 -1102.6 764.6 -1190.2 795.3 -1152.2C826 -1114.2 765.4 -950.7 793.2 -895.3C821 -839.9 937.1 -892.7 1000.1 -886C1063.1 -879.3 1073 -813.1 1107.5 -764.5C1142 -715.9 1201.1 -684.8 1193.9 -626.6C1186.7 -568.4 1113.3 -483 1139.7 -432.2C1166 -381.4 1292.2 -365.3 1302.4 -321C1312.6 -276.7 1207 -204.4 1203.9 -146.2C1200.9 -88 1300.4 -44 1400 0L0 0Z" fill="#1f143e"></path><path d="M0 -1200C51.4 -1209.9 102.9 -1219.7 143.6 -1183.1C184.4 -1146.4 214.5 -1063.1 252.9 -1026C291.3 -988.9 337.9 -998 371.5 -979.7C405.2 -961.4 425.8 -915.7 488.3 -930.4C550.9 -945.1 655.4 -1020.1 681.7 -987.6C708 -955 656.1 -814.9 679.9 -767.4C703.7 -720 803.2 -765.2 857.2 -759.4C911.2 -753.7 919.7 -696.9 949.3 -655.3C978.9 -613.6 1029.5 -587 1023.4 -537.1C1017.2 -487.2 954.3 -414 976.9 -370.5C999.4 -326.9 1107.6 -313.1 1116.3 -275.2C1125.1 -237.2 1034.5 -175.2 1031.9 -125.3C1029.3 -75.4 1114.7 -37.7 1200 0L0 0Z" fill="#2a1a54"></path><path d="M0 -1000C42.9 -1008.2 85.7 -1016.5 119.7 -985.9C153.7 -955.3 178.8 -886 210.7 -855C242.7 -824.1 281.6 -831.6 309.6 -816.4C337.6 -801.1 354.8 -763.1 406.9 -775.3C459.1 -787.6 546.1 -850.1 568.1 -823C590 -795.9 546.7 -679.1 566.6 -639.5C586.4 -600 669.3 -637.7 714.4 -632.9C759.4 -628.1 766.5 -580.8 791.1 -546.1C815.7 -511.3 857.9 -489.2 852.8 -447.6C847.7 -406 795.2 -345 814 -308.7C832.9 -272.5 923 -260.9 930.3 -229.3C937.6 -197.7 862.1 -146 859.9 -104.4C857.8 -62.9 928.9 -31.4 1000 0L0 0Z" fill="#371e6a"></path><path d="M0 -800C34.3 -806.6 68.6 -813.2 95.8 -788.7C122.9 -764.3 143 -708.8 168.6 -684C194.2 -659.3 225.3 -665.3 247.7 -653.1C270.1 -640.9 283.8 -610.5 325.5 -620.3C367.2 -630.1 436.9 -680.1 454.5 -658.4C472 -636.7 437.4 -543.2 453.2 -511.6C469.1 -480 535.5 -510.1 571.5 -506.3C607.5 -502.5 613.2 -464.6 632.9 -436.8C652.6 -409.1 686.3 -391.3 682.2 -358.1C678.1 -324.8 636.2 -276 651.2 -247C666.3 -218 738.4 -208.7 744.2 -183.4C750.1 -158.1 689.7 -116.8 687.9 -83.5C686.2 -50.3 743.1 -25.1 800 0L0 0Z" fill="#452281"></path><path d="M0 -600C25.7 -604.9 51.4 -609.9 71.8 -591.5C92.2 -573.2 107.3 -531.6 126.4 -513C145.6 -494.5 169 -499 185.8 -489.8C202.6 -480.7 212.9 -457.8 244.2 -465.2C275.4 -472.5 327.7 -510.1 340.8 -493.8C354 -477.5 328 -407.4 339.9 -383.7C351.8 -360 401.6 -382.6 428.6 -379.7C455.6 -376.8 459.9 -348.5 474.7 -327.6C489.4 -306.8 514.8 -293.5 511.7 -268.6C508.6 -243.6 477.1 -207 488.4 -185.2C499.7 -163.5 553.8 -156.5 558.2 -137.6C562.6 -118.6 517.3 -87.6 516 -62.6C514.7 -37.7 557.3 -18.9 600 0L0 0Z" fill="#562598"></path><path d="M0 -400C17.1 -403.3 34.3 -406.6 47.9 -394.4C61.5 -382.1 71.5 -354.4 84.3 -342C97.1 -329.6 112.6 -332.7 123.8 -326.6C135.1 -320.5 141.9 -305.2 162.8 -310.1C183.6 -315 218.5 -340 227.2 -329.2C236 -318.3 218.7 -271.6 226.6 -255.8C234.6 -240 267.7 -255.1 285.7 -253.1C303.7 -251.2 306.6 -232.3 316.4 -218.4C326.3 -204.5 343.2 -195.7 341.1 -179C339.1 -162.4 318.1 -138 325.6 -123.5C333.1 -109 369.2 -104.4 372.1 -91.7C375 -79.1 344.8 -58.4 344 -41.8C343.1 -25.1 371.6 -12.6 400 0L0 0Z" fill="#6827af"></path><path d="M0 -200C8.6 -201.6 17.1 -203.3 23.9 -197.2C30.7 -191.1 35.8 -177.2 42.1 -171C48.5 -164.8 56.3 -166.3 61.9 -163.3C67.5 -160.2 71 -152.6 81.4 -155.1C91.8 -157.5 109.2 -170 113.6 -164.6C118 -159.2 109.3 -135.8 113.3 -127.9C117.3 -120 133.9 -127.5 142.9 -126.6C151.9 -125.6 153.3 -116.2 158.2 -109.2C163.1 -102.3 171.6 -97.8 170.6 -89.5C169.5 -81.2 159 -69 162.8 -61.7C166.6 -54.5 184.6 -52.2 186.1 -45.9C187.5 -39.5 172.4 -29.2 172 -20.9C171.6 -12.6 185.8 -6.3 200 0L0 0Z" fill="#7127ba"></path></g></svg>